<?xml version="1.0" encoding="utf-8"?>
<!-- Svg Vector Icons : http://www.onlinewebfonts.com/icon -->
<!DOCTYPE svg PUBLIC "-//W3C//DTD SVG 1.1//EN" "http://www.w3.org/Graphics/SVG/1.1/DTD/svg11.dtd">
<svg version="1.1" xmlns="http://www.w3.org/2000/svg" xmlns:xlink="http://www.w3.org/1999/xlink" x="0px" y="0px" viewBox="0 0 256 256" enable-background="new 0 0 256 256" xml:space="preserve">
<metadata> Svg Vector Icons : http://www.onlinewebfonts.com/icon </metadata>
<g><g><g><path fill="#000000" d="M113.6,10.2C93.9,13,74.4,20.7,59.4,31.3c-8.5,6-22.1,19.6-28.2,28.2c-8.8,12.4-16,29-19.6,45.2c-1.3,6.1-1.5,9.1-1.6,23.1c0,14.3,0.2,16.9,1.6,23.7c9,42.1,38.7,75.7,78.6,89c14.4,4.8,19.4,5.5,37.4,5.5c17.6,0.1,21.3-0.4,35-4.6c41.5-12.6,72.4-46.6,81.7-89.9c1.5-6.7,1.7-9.5,1.7-23.4c0-17.2-0.5-21.1-4.7-34.7c-12.6-41.4-46.6-72.3-89.6-81.7c-6-1.3-9.9-1.6-21.6-1.8C122.2,9.9,114.8,10,113.6,10.2z M148.7,25.8c9.9,2.1,16.2,4.3,25.9,9.1c20,9.9,36.7,26.6,46.6,46.6c8.1,16.3,10.7,27.7,10.8,46.2c0.1,18.3-2.7,30.5-10.6,46.4l-3.9,7.8l-3.4-3.2c-7.1-6.7-22.8-15.1-40.6-21.7l-8.8-3.4l-4.9,4.1c-6.4,5.3-11.4,8.3-17.9,10.6c-4.5,1.6-6.2,1.8-13.9,1.8c-7.7,0-9.4-0.2-13.9-1.8c-6.4-2.3-11.5-5.3-17.9-10.6l-4.9-4.1l-8.8,3.4c-17.8,6.7-33.5,15.1-40.7,21.8l-3.4,3.2l-3.9-7.9c-15.5-31.8-14.4-67.7,3-98.1C46.2,61,60.9,46.3,76,37.7c11.3-6.5,26-11.5,38.9-13.2C122.8,23.5,140.5,24.2,148.7,25.8z"/><path fill="#000000" d="M118.2,52.2c-6.9,1.5-15.1,5.8-20.8,11.1c-17.7,16.4-20.9,41.5-8.7,66.5c12.1,24.7,33.7,36,52.4,27.5c14.6-6.7,27.1-23.5,31.9-43c2-7.9,2-19.4,0.3-26.3C166.4,62.3,142.8,46.8,118.2,52.2z"/></g></g></g>
</svg>